<?xml version="1.0" encoding="UTF-8" standalone="no"?>
<!--?xml version="1.0" standalone="no"?-->

<svg
   id="sw-js-blob-svg"
   viewBox="0 0 70.735985 51.994102"
   version="1.1"
   sodipodi:docname="blob2.svg"
   width="70.735985"
   height="51.994102"
   inkscape:version="1.3.2 (091e20e, 2023-11-25, custom)"
   xmlns:inkscape="http://www.inkscape.org/namespaces/inkscape"
   xmlns:sodipodi="http://sodipodi.sourceforge.net/DTD/sodipodi-0.dtd"
   xmlns="http://www.w3.org/2000/svg"
   xmlns:svg="http://www.w3.org/2000/svg">
  <sodipodi:namedview
     id="namedview1"
     pagecolor="#ffffff"
     bordercolor="#000000"
     borderopacity="0.25"
     inkscape:showpageshadow="2"
     inkscape:pageopacity="0.0"
     inkscape:pagecheckerboard="0"
     inkscape:deskcolor="#d1d1d1"
     inkscape:zoom="8.21"
     inkscape:cx="32.582217"
     inkscape:cy="38.794153"
     inkscape:window-width="1920"
     inkscape:window-height="1017"
     inkscape:window-x="-8"
     inkscape:window-y="-8"
     inkscape:window-maximized="1"
     inkscape:current-layer="sw-js-blob-svg" />
  <defs
     id="defs1">
    <linearGradient
       id="sw-gradient"
       x1="-29.825817"
       x2="27.546125"
       y1="25.536798"
       y2="-31.835142"
       gradientTransform="matrix(1.3776414,0,0,0.9062636,85.886286,57.702064)"
       gradientUnits="userSpaceOnUse">
      <stop
         id="stop1"
         stop-color="rgba(58, 156, 143, 0.19)"
         offset="0%" />
      <stop
         id="stop2"
         stop-color="rgba(58, 156, 143, 0.2)"
         offset="100%" />
    </linearGradient>
  </defs>
  <path
     fill="url(#sw-gradient)"
     d="m 61.467136,0.65103154 c 6.368985,1.99999996 9.944556,9.50000046 9.1624,16.20000046 -0.893893,6.8 -6.145512,12.6 -8.49198,19.4 -2.346469,6.8 -1.899522,14.5 -5.58683,15.6 -3.799043,1.1 -11.732341,-4.4 -17.207433,-7.7 -5.363356,-3.2 -8.156771,-4.1 -13.967073,-4.6 -5.810302,-0.4 -14.749229,-0.5 -19.8891122,-4.1 -5.13988304,-3.6 -6.48072204,-10.8 -4.80467304,-17.5 1.78778504,-6.8 6.70419504,-13.1000005 13.18491724,-15.0000005 6.480722,-1.99999996 14.749229,0.4 23.352946,-0.2 8.715453,-0.6 17.877853,-4.2 24.246838,-2.09999996 z"
     width="100%"
     height="100%"
     stroke-width="0"
     style="fill:url(#sw-gradient);stroke:url(#sw-gradient)"
     stroke="url(#sw-gradient)"
     id="path1" />
</svg>
