<?xml version="1.0" encoding="UTF-8" standalone="no"?>
<!--?xml version="1.0" standalone="no"?-->

<svg
   id="sw-js-blob-svg"
   viewBox="0 0 68.002701 70.779411"
   version="1.1"
   sodipodi:docname="blob.svg"
   width="68.002701"
   height="70.779411"
   inkscape:version="1.3.2 (091e20e, 2023-11-25, custom)"
   xmlns:inkscape="http://www.inkscape.org/namespaces/inkscape"
   xmlns:sodipodi="http://sodipodi.sourceforge.net/DTD/sodipodi-0.dtd"
   xmlns="http://www.w3.org/2000/svg"
   xmlns:svg="http://www.w3.org/2000/svg">
  <sodipodi:namedview
     id="namedview1"
     pagecolor="#ffffff"
     bordercolor="#000000"
     borderopacity="0.25"
     inkscape:showpageshadow="2"
     inkscape:pageopacity="0.0"
     inkscape:pagecheckerboard="0"
     inkscape:deskcolor="#d1d1d1"
     inkscape:zoom="8.21"
     inkscape:cx="32.704019"
     inkscape:cy="39.403167"
     inkscape:window-width="1920"
     inkscape:window-height="1017"
     inkscape:window-x="-8"
     inkscape:window-y="-8"
     inkscape:window-maximized="1"
     inkscape:current-layer="sw-js-blob-svg" />
  <defs
     id="defs1">
    <linearGradient
       id="sw-gradient"
       x1="-33.393479"
       x2="35.983685"
       y1="30.780463"
       y2="-38.596701"
       gradientTransform="matrix(0.98018848,0,0,1.020212,65.463808,78.753632)"
       gradientUnits="userSpaceOnUse">
      <stop
         id="stop1"
         stop-color="rgba(245, 168, 160, 0.5)"
         offset="0%" />
      <stop
         id="stop2"
         stop-color="rgba(245, 168, 160, 0.29)"
         offset="100%" />
    </linearGradient>
  </defs>
  <path
     fill="url(#sw-gradient)"
     d="m 50.331904,10.376816 c 6.8,2.4 14.8,4 16.2,8.7 1.4,4.7 -3.8,12.5 -3.5,20.5 0.3,8 6.3,16.2 4.7,20.5 -1.7,4.3 -10.9,4.6 -18,6.2 -7.1,1.7 -12,4.5 -17,4.5 -5,0.1 -10,-2.7 -13.4,-6.4 -3.4,-3.8 -5.3,-8.5 -8,-12.8 -2.8000004,-4.3 -6.5000004,-8.3 -8.8000004,-13.5 -2.30000003,-5.3 -3.20000003,-11.9 -2.00000003,-19 1.20000003,-7 4.50000003,-14.5000001 10.20000043,-17.4000001 5.8,-3 13.9,-1.50000001 20.7,0.8 6.7,2.4 12.2,5.5 18.9,7.9000001 z"
     width="100%"
     height="100%"
     stroke-width="0"
     stroke="url(#sw-gradient)"
     id="path1"
     style="fill:url(#sw-gradient);stroke:url(#sw-gradient)" />
</svg>
